<svg width="192" height="64" viewBox="0 0 192 64" fill="none" xmlns="http://www.w3.org/2000/svg">
<path d="M16.543 11.0391C16.543 11.0677 16.5286 11.5117 16.5 12.3711C16.5 13.2305 16.4857 14.3763 16.457 15.8086C16.457 17.2409 16.4427 18.9023 16.4141 20.793C16.4141 22.6836 16.3997 24.6888 16.3711 26.8086C16.3424 28.8997 16.3138 31.0482 16.2852 33.2539C16.2852 35.4596 16.2708 37.5938 16.2422 39.6562C16.2422 41.6901 16.2279 43.5951 16.1992 45.3711C16.1992 47.1471 16.1992 48.6654 16.1992 49.9258V52.5039C16.6003 52.5612 16.987 52.5898 17.3594 52.5898C17.7604 52.5898 18.1615 52.5898 18.5625 52.5898C19.7656 52.5898 21.1979 52.4753 22.8594 52.2461C24.5495 52.0169 26.3542 51.5299 28.2734 50.7852C30.2214 50.0117 32.2409 48.9089 34.332 47.4766C36.4518 46.0156 38.5286 44.0534 40.5625 41.5898C42.9974 38.668 44.7305 35.7461 45.7617 32.8242C46.8216 29.9023 47.3516 26.9805 47.3516 24.0586C47.3516 21.5951 47.0938 19.4609 46.5781 17.6562C46.0625 15.8516 45.332 14.3333 44.3867 13.1016C43.4701 11.8411 42.3672 10.8242 41.0781 10.0508C39.8177 9.27734 38.4141 8.67578 36.8672 8.24609C35.349 7.81641 33.7161 7.52995 31.9688 7.38672C30.25 7.24349 28.4883 7.17188 26.6836 7.17188C25.3945 7.17188 23.9049 7.32943 22.2148 7.64453C20.5247 7.95964 18.7773 8.36068 16.9727 8.84766C15.1966 9.33464 13.4349 9.85026 11.6875 10.3945C9.9401 10.9388 8.35026 11.4544 6.91797 11.9414C5.51432 12.4284 4.33984 12.8294 3.39453 13.1445C2.44922 13.4596 1.8763 13.6172 1.67578 13.6172C1.38932 13.3307 1.14583 13.0586 0.945312 12.8008C0.773438 12.6003 0.615885 12.4141 0.472656 12.2422C0.329427 12.0703 0.257812 11.9701 0.257812 11.9414C0.257812 11.8841 0.300781 11.8125 0.386719 11.7266C0.44401 11.6693 0.544271 11.5977 0.6875 11.5117C0.830729 11.4258 1.04557 11.3542 1.33203 11.2969C1.24609 11.125 1.1888 11.0104 1.16016 10.9531C1.16016 10.8958 1.16016 10.8385 1.16016 10.7812C1.16016 10.6953 1.17448 10.6094 1.20312 10.5234C1.23177 10.4375 1.36068 10.3516 1.58984 10.2656C1.16016 10.0651 0.859375 9.89323 0.6875 9.75C0.515625 9.57812 0.401042 9.44922 0.34375 9.36328C0.315104 9.27734 0.315104 9.22005 0.34375 9.19141C0.372396 9.16276 0.386719 9.16276 0.386719 9.19141C0.386719 9.10547 0.44401 9.04818 0.558594 9.01953C0.673177 8.99089 0.759115 8.90495 0.816406 8.76172C0.816406 8.73307 0.902344 8.54688 1.07422 8.20312C1.24609 7.85938 1.60417 7.45833 2.14844 7C2.72135 6.54167 3.52344 6.06901 4.55469 5.58203C5.58594 5.09505 6.97526 4.66536 8.72266 4.29297C9.32422 4.14974 10.1406 3.96354 11.1719 3.73438C12.2031 3.47656 13.3919 3.23307 14.7383 3.00391C16.1133 2.77474 17.6029 2.57422 19.207 2.40234C20.8112 2.23047 22.487 2.14453 24.2344 2.14453C29.0182 2.14453 33.2578 2.86068 36.9531 4.29297C40.6484 5.69661 43.7422 7.58724 46.2344 9.96484C48.7552 12.3424 50.6602 15.0924 51.9492 18.2148C53.2383 21.3372 53.8828 24.6029 53.8828 28.0117C53.8828 30.0169 53.6107 32.0794 53.0664 34.1992C52.5221 36.319 51.7344 38.4102 50.7031 40.4727C49.7005 42.5352 48.4831 44.526 47.0508 46.4453C45.6185 48.3646 44.0143 50.1263 42.2383 51.7305C40.4622 53.306 38.543 54.6953 36.4805 55.8984C34.4466 57.1016 32.2982 58.0182 30.0352 58.6484C27.7721 59.2786 25.7096 59.7227 23.8477 59.9805C22.0143 60.2096 20.3242 60.3242 18.7773 60.3242C16.7148 60.3242 15.0391 60.2096 13.75 59.9805C12.4609 59.7227 11.4583 59.4505 10.7422 59.1641C10.0547 58.849 9.58203 58.5482 9.32422 58.2617C9.09505 57.9753 8.98047 57.7891 8.98047 57.7031C8.80859 57.5312 8.72266 57.2591 8.72266 56.8867C8.7513 56.1992 8.82292 54.2227 8.9375 50.957C8.99479 49.582 9.05208 47.849 9.10938 45.7578C9.19531 43.6667 9.28125 41.1458 9.36719 38.1953C9.48177 35.2161 9.61068 31.7357 9.75391 27.7539C9.92578 23.7721 10.112 19.2031 10.3125 14.0469C10.3125 13.4453 10.4701 13.0299 10.7852 12.8008C11.1289 12.5716 11.5443 12.3997 12.0312 12.2852C12.5182 12.1706 13.0339 12.0703 13.5781 11.9844C14.151 11.8698 14.6523 11.6406 15.082 11.2969C15.2539 11.1536 15.4401 11.0391 15.6406 10.9531C15.8698 10.8385 16.056 10.7812 16.1992 10.7812C16.4284 10.7812 16.543 10.8672 16.543 11.0391ZM89.8047 43.8672C89.8047 46.875 89.3607 49.582 88.4727 51.9883C87.6133 54.3945 86.4245 56.4427 84.9062 58.1328C83.4167 59.8229 81.6836 61.1263 79.707 62.043C77.7305 62.9596 75.6393 63.418 73.4336 63.418C72.5169 63.418 71.5143 63.3034 70.4258 63.0742C69.3372 62.8737 68.2487 62.5299 67.1602 62.043C66.0716 61.556 65.0117 60.9115 63.9805 60.1094C62.9492 59.3073 62.0326 58.319 61.2305 57.1445C60.4284 55.9701 59.7839 54.5951 59.2969 53.0195C58.8385 51.444 58.6237 49.625 58.6523 47.5625C58.6523 45.2135 58.9388 43.0794 59.5117 41.1602C60.0846 39.2122 60.8151 37.4792 61.7031 35.9609C62.6198 34.4141 63.651 33.082 64.7969 31.9648C65.9427 30.8477 67.0885 29.9167 68.2344 29.1719C69.3802 28.3984 70.4831 27.8255 71.543 27.4531C72.6029 27.0807 73.5195 26.8659 74.293 26.8086C74.694 26.7799 74.8659 26.8229 74.8086 26.9375C74.7799 27.0521 74.6797 27.181 74.5078 27.3242C74.3359 27.4674 74.1784 27.6107 74.0352 27.7539C73.9206 27.8971 73.9779 27.9831 74.207 28.0117C74.4076 28.069 74.5651 28.1263 74.6797 28.1836C74.8229 28.2409 74.9661 28.3125 75.1094 28.3984L75.4531 28.0117C75.6536 27.8685 75.8398 27.7969 76.0117 27.7969C76.2122 27.7969 76.3841 27.8255 76.5273 27.8828C76.6706 27.9115 76.7852 27.9258 76.8711 27.9258C76.957 27.9258 77.0143 27.8398 77.043 27.668C77.1003 27.3529 77.2005 27.181 77.3438 27.1523C77.5156 27.0951 77.888 27.0664 78.4609 27.0664C78.8047 27.0664 79.3203 27.1667 80.0078 27.3672C80.724 27.5677 81.4974 27.9115 82.3281 28.3984C83.1875 28.8854 84.0469 29.5443 84.9062 30.375C85.7943 31.1771 86.5964 32.2083 87.3125 33.4688C88.0573 34.7005 88.6589 36.1758 89.1172 37.8945C89.5755 39.6133 89.8047 41.6042 89.8047 43.8672ZM74.293 31.2773C73.2904 31.8789 72.3021 32.6953 71.3281 33.7266C70.3542 34.7578 69.4661 35.9466 68.6641 37.293C67.8906 38.6393 67.2604 40.1432 66.7734 41.8047C66.2865 43.4661 66.043 45.2135 66.043 47.0469C66.043 49.0234 66.2148 50.8138 66.5586 52.418C66.931 54.0221 67.4609 55.3971 68.1484 56.543C68.8359 57.6602 69.6667 58.5339 70.6406 59.1641C71.6432 59.7656 72.7747 60.0664 74.0352 60.0664C75.1523 60.0664 76.2552 59.7513 77.3438 59.1211C78.4609 58.4909 79.4492 57.5456 80.3086 56.2852C81.168 55.0247 81.8555 53.4635 82.3711 51.6016C82.9154 49.7396 83.1875 47.5768 83.1875 45.1133C83.1875 42.6211 82.8581 40.5299 82.1992 38.8398C81.5404 37.1497 80.7956 35.7891 79.9648 34.7578C79.1628 33.6979 78.3893 32.9531 77.6445 32.5234C76.8997 32.0651 76.4414 31.8359 76.2695 31.8359C75.8685 31.8359 75.5534 31.8359 75.3242 31.8359C75.1237 31.8359 74.7799 31.6497 74.293 31.2773ZM125.641 48.8086C125.641 50.4414 125.283 52.1029 124.566 53.793C123.85 55.4831 122.833 57.0299 121.516 58.4336C120.227 59.8086 118.651 60.9401 116.789 61.8281C114.927 62.7161 112.836 63.1602 110.516 63.1602C108.625 63.1602 106.706 62.7591 104.758 61.957C102.839 61.1549 101.105 60.0091 99.5586 58.5195C98.0117 57.0013 96.7513 55.168 95.7773 53.0195C94.8034 50.8711 94.3164 48.4648 94.3164 45.8008C94.3164 43.1654 94.8177 40.6732 95.8203 38.3242C96.8516 35.9466 98.1979 33.8841 99.8594 32.1367C101.521 30.3607 103.411 28.957 105.531 27.9258C107.68 26.8945 109.885 26.3789 112.148 26.3789C114.24 26.3789 116.001 26.6654 117.434 27.2383C118.895 27.7826 120.069 28.4414 120.957 29.2148C121.845 29.9596 122.475 30.7331 122.848 31.5352C123.249 32.3372 123.449 32.9818 123.449 33.4688C123.449 34.5573 123.22 35.4453 122.762 36.1328C122.303 36.8203 121.773 37.3359 121.172 37.6797C120.599 38.0234 120.04 38.224 119.496 38.2812C118.98 38.3099 118.651 38.2096 118.508 37.9805C118.393 37.8659 118.264 37.8086 118.121 37.8086C118.007 37.8086 117.878 37.8372 117.734 37.8945C117.591 37.9518 117.448 38.0091 117.305 38.0664C117.19 38.1237 117.09 38.1237 117.004 38.0664C116.861 38.0091 116.846 37.8802 116.961 37.6797C117.104 37.4792 117.176 37.3073 117.176 37.1641C117.176 36.9062 117.161 36.6198 117.133 36.3047C117.133 35.9609 117.204 35.6029 117.348 35.2305C117.605 34.7148 117.706 34.1562 117.648 33.5547C117.62 32.9245 117.405 32.3372 117.004 31.793C116.632 31.2487 116.03 30.7904 115.199 30.418C114.397 30.0456 113.352 29.8594 112.062 29.8594C111.146 29.8594 110.057 30.1602 108.797 30.7617C107.536 31.3633 106.333 32.3086 105.188 33.5977C104.07 34.8581 103.111 36.4766 102.309 38.4531C101.535 40.401 101.148 42.7357 101.148 45.457C101.148 46.6315 101.292 47.8633 101.578 49.1523C101.893 50.4414 102.438 51.6302 103.211 52.7188C103.984 53.8073 105.03 54.7096 106.348 55.4258C107.665 56.1133 109.341 56.457 111.375 56.457C112.721 56.457 113.953 56.2708 115.07 55.8984C116.216 55.526 117.247 55.0534 118.164 54.4805C119.081 53.9076 119.897 53.2773 120.613 52.5898C121.329 51.9023 121.931 51.2578 122.418 50.6562C122.905 50.026 123.277 49.4818 123.535 49.0234C123.822 48.5651 123.993 48.2786 124.051 48.1641C124.165 48.0208 124.309 47.9206 124.48 47.8633C124.652 47.7773 124.824 47.763 124.996 47.8203C125.168 47.849 125.311 47.9492 125.426 48.1211C125.569 48.2643 125.641 48.4935 125.641 48.8086ZM174.711 60.7539C174.711 60.9831 174.568 61.112 174.281 61.1406C173.995 61.1406 173.694 61.1406 173.379 61.1406C173.236 61.1693 173.092 61.1979 172.949 61.2266C172.806 61.2839 172.648 61.3411 172.477 61.3984C172.333 61.4271 172.19 61.513 172.047 61.6562C172.104 61.9427 172.118 62.1576 172.09 62.3008C172.09 62.4727 172.09 62.6016 172.09 62.6875L172.047 62.8594C171.961 62.974 171.789 63.0599 171.531 63.1172C171.273 63.2031 171.001 63.2461 170.715 63.2461C170.658 63.2461 170.572 63.2318 170.457 63.2031C170.257 63.1458 170.056 63.0026 169.855 62.7734C169.368 62.6302 168.796 62.487 168.137 62.3438C167.793 62.2578 167.421 62.1719 167.02 62.0859C166.704 62 166.432 61.7708 166.203 61.3984C165.974 61.026 165.759 60.5964 165.559 60.1094C165.387 59.5938 165.215 59.0781 165.043 58.5625C164.9 58.0182 164.771 57.5456 164.656 57.1445L160.445 43.8672C159.815 43.8672 159.013 43.8815 158.039 43.9102C157.094 43.9102 156.077 43.9245 154.988 43.9531C153.9 43.9531 152.797 43.9818 151.68 44.0391C150.562 44.0677 149.546 44.0964 148.629 44.125L140.035 44.5547L135.008 57.7031C134.922 57.8464 134.793 58.1328 134.621 58.5625C134.478 58.9922 134.32 59.4505 134.148 59.9375C133.977 60.3958 133.819 60.8398 133.676 61.2695C133.533 61.6706 133.447 61.9141 133.418 62C133.361 62.2292 133.189 62.3724 132.902 62.4297C132.616 62.487 132.372 62.5443 132.172 62.6016C132 62.6589 131.857 62.8164 131.742 63.0742C131.628 63.332 131.456 63.5039 131.227 63.5898C130.997 63.7331 130.711 63.7474 130.367 63.6328C130.023 63.5182 129.723 63.332 129.465 63.0742C129.236 62.7878 129.15 62.4297 129.207 62C129.264 61.5417 129.293 61.069 129.293 60.582C129.293 60.0951 129.279 59.6367 129.25 59.207C129.25 58.7773 129.322 58.362 129.465 57.9609C129.522 57.7891 129.694 57.2591 129.98 56.3711C130.296 55.4544 130.682 54.3659 131.141 53.1055C131.599 51.8164 132.1 50.4271 132.645 48.9375C133.189 47.4193 133.747 45.9583 134.32 44.5547C133.805 44.5547 133.447 44.4115 133.246 44.125C133.103 43.8958 132.931 43.7669 132.73 43.7383C132.53 43.681 132.315 43.6094 132.086 43.5234C131.857 43.4661 131.699 43.3372 131.613 43.1367C131.527 42.9362 131.513 42.7643 131.57 42.6211C131.628 42.4492 131.585 42.306 131.441 42.1914C131.298 42.0768 131.227 41.819 131.227 41.418C131.227 41.2461 131.355 41.0885 131.613 40.9453C131.9 40.7734 132.243 40.6302 132.645 40.5156C133.046 40.401 133.49 40.3008 133.977 40.2148C134.492 40.1289 134.979 40.0573 135.438 40C135.523 40 135.624 40 135.738 40C135.882 40 136.025 39.9714 136.168 39.9141C136.798 38.3958 137.514 36.763 138.316 35.0156C139.118 33.2396 139.935 31.4349 140.766 29.6016C141.625 27.7682 142.484 25.9349 143.344 24.1016C144.203 22.2682 145.02 20.5495 145.793 18.9453C146.566 17.3125 147.268 15.8229 147.898 14.4766C148.557 13.1302 149.102 12.013 149.531 11.125C149.188 10.0651 148.872 9.09115 148.586 8.20312C148.328 7.3151 148.099 6.54167 147.898 5.88281C147.698 5.22396 147.54 4.70833 147.426 4.33594C147.311 3.9349 147.254 3.70573 147.254 3.64844C147.225 3.59115 147.225 3.53385 147.254 3.47656C147.311 3.33333 147.454 3.2474 147.684 3.21875C147.454 2.78906 147.34 2.47396 147.34 2.27344C147.34 2.15885 147.368 2.08724 147.426 2.05859C147.483 2.0013 147.626 1.94401 147.855 1.88672C148.085 1.82943 148.328 1.78646 148.586 1.75781C148.844 1.70052 149.087 1.67188 149.316 1.67188C149.546 1.64323 149.703 1.62891 149.789 1.62891C149.818 1.62891 149.889 1.64323 150.004 1.67188C150.176 1.72917 150.419 1.85807 150.734 2.05859C150.763 1.91536 150.792 1.8151 150.82 1.75781C150.878 1.70052 150.935 1.64323 150.992 1.58594L151.121 1.45703C151.293 1.37109 151.479 1.35677 151.68 1.41406C151.88 1.44271 152.066 1.45703 152.238 1.45703C152.41 1.45703 152.525 1.38542 152.582 1.24219C152.668 1.09896 152.854 1.02734 153.141 1.02734C153.513 1.02734 153.828 1.42839 154.086 2.23047C154.115 2.3737 154.315 2.91797 154.688 3.86328C155.06 4.77995 155.533 5.9974 156.105 7.51562C156.678 9.00521 157.337 10.7383 158.082 12.7148C158.855 14.6914 159.658 16.7969 160.488 19.0312C161.319 21.237 162.15 23.5286 162.98 25.9062C163.84 28.2552 164.656 30.5755 165.43 32.8672C167.034 37.5365 168.38 41.4753 169.469 44.6836C170.557 47.8919 171.431 50.513 172.09 52.5469C172.777 54.5807 173.279 56.099 173.594 57.1016C173.938 58.1042 174.152 58.7057 174.238 58.9062C174.382 59.3646 174.496 59.737 174.582 60.0234C174.668 60.2812 174.711 60.5247 174.711 60.7539ZM156.191 31.3633C155.447 29.2435 154.63 26.8659 153.742 24.2305C152.883 21.5951 152.038 18.9883 151.207 16.4102C150.72 17.6706 150.133 19.1888 149.445 20.9648C148.758 22.7409 148.027 24.5742 147.254 26.4648C146.509 28.3555 145.779 30.2031 145.062 32.0078C144.346 33.8125 143.716 35.3594 143.172 36.6484L141.969 39.4844L149.703 39.0117C150.362 39.0117 151.15 38.9974 152.066 38.9688C153.613 38.9401 155.848 38.8971 158.77 38.8398L156.191 31.3633ZM191.77 1.97266C191.77 7.15755 191.669 12.4284 191.469 17.7852C191.268 23.1133 191.125 28.4128 191.039 33.6836C191.01 36.0898 191.025 38.4818 191.082 40.8594C191.168 43.2083 191.254 45.457 191.34 47.6055C191.454 49.7253 191.555 51.6732 191.641 53.4492C191.727 55.1966 191.77 56.6719 191.77 57.875C191.77 58.7057 191.741 59.3789 191.684 59.8945C191.626 60.3815 191.526 60.668 191.383 60.7539C191.24 60.8971 191.111 60.9831 190.996 61.0117C190.882 61.0404 190.767 61.0547 190.652 61.0547C190.538 61.0547 190.409 61.0547 190.266 61.0547C190.151 61.026 190.008 61.0547 189.836 61.1406C189.635 61.2266 189.507 61.3268 189.449 61.4414C189.392 61.5273 189.335 61.6276 189.277 61.7422C189.22 61.8568 189.134 61.9714 189.02 62.0859C188.905 62.2005 188.704 62.3151 188.418 62.4297C188.046 62.5156 187.688 62.4154 187.344 62.1289C187.029 61.8711 186.714 61.6562 186.398 61.4844C185.911 61.1979 185.51 60.9688 185.195 60.7969C184.909 60.5964 184.637 60.2956 184.379 59.8945C184.178 59.5508 184.007 59.0352 183.863 58.3477C183.72 57.6315 183.605 56.8008 183.52 55.8555C183.434 54.8815 183.376 53.8073 183.348 52.6328C183.319 51.4583 183.305 50.2409 183.305 48.9805C183.305 47.5482 183.319 46.1159 183.348 44.6836C183.376 43.2227 183.405 41.8333 183.434 40.5156C183.491 39.1979 183.534 38.0091 183.562 36.9492C183.591 35.8893 183.62 35.0299 183.648 34.3711C183.706 32.3086 183.777 30.1458 183.863 27.8828C183.978 25.6198 184.078 23.3711 184.164 21.1367C184.279 18.8737 184.393 16.6966 184.508 14.6055C184.622 12.5143 184.737 10.6094 184.852 8.89062C184.966 7.14323 185.066 5.66797 185.152 4.46484C185.267 3.23307 185.382 2.3737 185.496 1.88672C185.668 1.28516 185.969 0.941406 186.398 0.855469C186.599 0.769531 186.757 0.783854 186.871 0.898438C187.014 1.01302 187.172 0.941406 187.344 0.683594C187.401 0.540365 187.487 0.454427 187.602 0.425781C187.716 0.397135 187.831 0.382812 187.945 0.382812C188.06 0.382812 188.174 0.382812 188.289 0.382812C188.404 0.382812 188.504 0.354167 188.59 0.296875C188.762 0.125 188.934 0.0963542 189.105 0.210938C189.306 0.296875 189.449 0.382812 189.535 0.46875C189.621 0.669271 189.736 0.826823 189.879 0.941406C190.022 1.02734 190.18 0.998698 190.352 0.855469C190.438 0.769531 190.552 0.726562 190.695 0.726562C190.867 0.726562 190.982 0.798177 191.039 0.941406C191.125 1.08464 191.268 1.22786 191.469 1.37109C191.669 1.51432 191.77 1.71484 191.77 1.97266Z" fill="black"/>
</svg>
