<svg width="14" height="9" viewBox="0 0 14 9" fill="none" xmlns="http://www.w3.org/2000/svg">
<path d="M2.07965 1.05205L2.07983 1.05184L2.07391 1.04736C1.78543 0.829024 1.37591 0.853422 1.11472 1.11986C0.828427 1.41189 0.828427 1.88456 1.11472 2.1766L6.65611 7.82913L6.65592 7.82932L6.66143 7.83417L6.73271 7.89694L6.73253 7.89714L6.73845 7.90163C7.02692 8.11996 7.43644 8.09556 7.69764 7.82913L13.239 2.1766L13.2392 2.17678L13.244 2.17119L13.3055 2.09849L13.3057 2.09866L13.31 2.09271C13.5228 1.8002 13.4995 1.38552 13.239 1.11986L13.2392 1.11967L13.2337 1.11481L13.1624 1.05205L13.1626 1.05184L13.1567 1.04736C12.8682 0.829024 12.4587 0.853422 12.1975 1.11986L7.17688 6.24139L2.15624 1.11986L2.15644 1.11967L2.15092 1.11481L2.07965 1.05205Z" fill="#3F8A7E" stroke="#3F8A7E" stroke-width="0.2"/>
</svg>
