<svg width="18" height="20" viewBox="0 0 18 20" fill="none" xmlns="http://www.w3.org/2000/svg">
<path d="M6.84337 17.2279C7.37269 17.1222 10.5981 17.1222 11.1274 17.2279C11.5799 17.3266 12.0692 17.5573 12.0692 18.0608C12.0429 18.5402 11.7451 18.9653 11.3336 19.2352C10.8001 19.628 10.174 19.8767 9.51943 19.9664C9.15743 20.0107 8.80174 20.0117 8.45237 19.9664C7.79677 19.8767 7.17064 19.628 6.63816 19.2342C6.22565 18.9653 5.92785 18.5402 5.90154 18.0608C5.90154 17.5573 6.39087 17.3266 6.84337 17.2279ZM9.04788 0C11.2504 0 13.5003 0.987019 14.8367 2.62466C15.7038 3.67916 16.1016 4.73265 16.1016 6.3703V6.79633C16.1016 8.05226 16.4531 8.79253 17.2265 9.64559C17.8127 10.2741 18 11.0808 18 11.956C18 12.8302 17.6959 13.6601 17.0866 14.3339C16.2889 15.1417 15.164 15.6573 14.0159 15.747C12.3522 15.8809 10.6874 15.9937 9.00053 15.9937C7.3126 15.9937 5.64887 15.9263 3.98515 15.747C2.83601 15.6573 1.71108 15.1417 0.914469 14.3339C0.305174 13.6601 0 12.8302 0 11.956C0 11.0808 0.188366 10.2741 0.773458 9.64559C1.57112 8.79253 1.89944 8.05226 1.89944 6.79633V6.3703C1.89944 4.68834 2.34353 3.58852 3.258 2.51186C4.6176 0.941697 6.79696 0 8.95317 0H9.04788Z" fill="#776ADA"/>
</svg>
