<svg width="23" height="23" viewBox="0 0 23 23" fill="none" xmlns="http://www.w3.org/2000/svg">
<path d="M18.7173 9.41683C19.2298 9.41683 19.6457 9.82662 19.6457 10.3336C19.6457 14.458 16.4837 17.8637 12.4287 18.3212V20.1666C12.4287 20.6726 12.0128 21.0833 11.5003 21.0833C10.9869 21.0833 10.5719 20.6726 10.5719 20.1666V18.3212C6.51597 17.8637 3.354 14.458 3.354 10.3336C3.354 9.82662 3.76991 9.41683 4.28236 9.41683C4.79481 9.41683 5.21071 9.82662 5.21071 10.3336C5.21071 13.7576 8.03197 16.5436 11.5003 16.5436C14.9677 16.5436 17.789 13.7576 17.789 10.3336C17.789 9.82662 18.2049 9.41683 18.7173 9.41683ZM11.6673 1.91667C13.9706 1.91667 15.8384 3.76024 15.8384 6.03469V10.4653C15.8384 12.7388 13.9706 14.5833 11.6673 14.5833H11.3322C9.02893 14.5833 7.16201 12.7388 7.16201 10.4653V6.03469C7.16201 3.76024 9.02893 1.91667 11.3322 1.91667H11.6673Z" fill="white"/>
</svg>
